<?xml version="1.0" standalone="no"?>
<!DOCTYPE svg PUBLIC "-//W3C//DTD SVG 20010904//EN"
 "http://www.w3.org/TR/2001/REC-SVG-20010904/DTD/svg10.dtd">
<svg version="1.0" xmlns="http://www.w3.org/2000/svg"
 width="960.000000pt" height="316.000000pt" viewBox="0 0 960.000000 316.000000"
 preserveAspectRatio="xMidYMid meet">

<g transform="translate(0.000000,316.000000) scale(0.100000,-0.100000)"
fill="#000000" stroke="none">
<path d="M3460 2060 l0 -440 75 0 75 0 2 393 3 392 102 0 c97 0 104 -1 128
-25 52 -52 58 -222 12 -292 -22 -31 -26 -33 -97 -38 l-75 -5 -3 -47 -3 -48 91
0 c100 0 147 14 193 58 52 49 70 98 75 198 7 145 -33 235 -123 275 -35 16 -68
19 -247 19 l-208 0 0 -440z"/>
<path d="M4140 2060 l0 -440 75 0 75 0 0 440 0 440 -75 0 -75 0 0 -440z"/>
<path d="M5872 2487 c-50 -19 -102 -65 -123 -111 -26 -56 -26 -185 0 -242 34
-75 119 -124 215 -124 85 0 126 -47 126 -143 0 -69 -21 -120 -56 -136 -14 -6
-78 -11 -149 -11 l-125 0 0 -50 0 -50 146 0 c176 0 225 11 274 60 46 46 65
110 64 213 -1 65 -6 87 -30 134 -37 72 -84 98 -203 112 -96 11 -120 27 -130
88 -10 61 3 121 33 151 25 26 31 27 156 31 l130 3 0 44 0 44 -147 -1 c-87 0
-161 -5 -181 -12z"/>
<path d="M7840 2435 l0 -65 75 0 75 0 0 65 0 65 -75 0 -75 0 0 -65z"/>
<path d="M6362 2072 l3 -329 28 -42 c37 -56 91 -80 180 -81 l67 0 0 50 0 50
-50 0 c-38 0 -52 4 -60 19 -6 12 -10 107 -10 240 l0 221 80 0 80 0 0 45 0 45
-80 0 -80 0 0 55 0 55 -81 0 -80 0 3 -328z"/>
<path d="M7422 2072 l3 -329 28 -42 c37 -56 91 -80 180 -81 l67 0 0 50 0 50
-50 0 c-38 0 -52 4 -60 19 -6 12 -10 107 -10 240 l0 221 80 0 80 0 0 45 0 45
-80 0 -80 0 0 55 0 55 -81 0 -80 0 3 -328z"/>
<path d="M4590 2281 c-75 -23 -117 -61 -152 -136 -21 -46 -23 -64 -23 -225 0
-197 5 -216 71 -267 34 -25 46 -28 140 -31 l104 -4 0 51 0 51 -70 0 c-60 0
-71 3 -80 21 -8 14 -10 80 -8 197 4 241 17 262 164 262 l64 0 0 -290 0 -290
75 0 75 0 0 335 0 335 -167 -1 c-93 0 -179 -4 -193 -8z"/>
<path d="M5045 2273 c29 -75 215 -633 215 -645 0 -9 -27 -85 -59 -169 l-60
-154 66 -3 c36 -2 67 -2 68 0 2 2 91 224 198 493 l194 490 -70 3 c-43 2 -73
-1 -77 -8 -4 -6 -42 -103 -85 -216 -43 -112 -81 -202 -84 -198 -3 3 -37 99
-76 212 l-70 207 -84 3 c-77 3 -83 1 -76 -15z"/>
<path d="M6920 2277 c-88 -29 -140 -88 -160 -181 -7 -30 -10 -115 -8 -208 l3
-156 31 -39 c47 -59 84 -73 192 -73 l93 0 -3 48 -3 47 -70 5 c-96 7 -97 10
-92 215 6 236 20 259 151 260 l81 0 3 -287 2 -288 75 0 75 0 0 335 0 335 -167
-1 c-100 0 -182 -5 -203 -12z"/>
<path d="M7840 1955 l0 -335 75 0 75 0 0 335 0 335 -75 0 -75 0 0 -335z"/>
<path d="M8262 2272 c-66 -24 -104 -59 -134 -126 -21 -46 -23 -66 -23 -191 0
-130 2 -144 26 -196 28 -58 67 -95 129 -120 45 -18 192 -18 243 0 50 17 103
64 128 113 31 60 45 190 31 287 -17 119 -55 181 -137 223 -58 30 -192 35 -263
10z m195 -98 c33 -21 53 -102 53 -210 0 -116 -15 -190 -46 -221 -18 -18 -34
-23 -77 -23 -65 0 -99 23 -118 78 -17 48 -17 265 -1 313 14 40 46 74 77 82 29
8 86 -2 112 -19z"/>
<path d="M8770 1955 l0 -335 75 0 75 0 2 288 3 287 81 0 c89 -1 104 -7 132
-59 14 -26 17 -71 20 -273 l4 -243 75 0 74 0 -3 243 c-3 224 -5 245 -25 290
-52 112 -115 137 -350 137 l-163 0 0 -335z"/>
<path d="M1985 1830 l-450 -378 -16 -62 c-30 -113 -77 -154 -179 -156 -64 -1
-71 -4 -114 -40 -25 -21 -44 -39 -43 -40 1 -1 40 7 87 17 211 47 511 5 585
-82 14 -17 25 -37 25 -44 0 -24 -53 -77 -95 -96 -51 -22 -595 -219 -607 -219
-4 0 -8 35 -8 78 l0 79 178 63 c270 95 282 100 282 115 0 18 -23 25 -80 25
-33 0 -98 -18 -205 -55 -87 -30 -161 -55 -166 -55 -5 0 -9 36 -9 80 0 78 -1
80 -20 70 -19 -10 -20 -21 -20 -216 l0 -205 -22 6 c-13 4 -73 23 -135 42
l-112 36 -3 44 -3 45 -348 -292 c-192 -161 -347 -294 -345 -296 4 -3 443 -71
1553 -240 l311 -47 239 153 c132 84 248 160 258 170 18 16 17 47 -27 891 -25
481 -49 900 -53 931 l-8 56 -450 -378z m-505 -1080 c0 -5 -7 -10 -15 -10 -11
0 -15 -12 -15 -50 0 -27 -4 -50 -10 -50 -5 0 -10 23 -10 50 0 43 -3 50 -20 50
-11 0 -20 5 -20 10 0 6 20 10 45 10 25 0 45 -4 45 -10z m52 -31 l14 -42 12 42
c20 64 42 54 42 -19 0 -64 -19 -85 -21 -22 l-1 37 -11 -32 c-18 -47 -25 -49
-41 -12 l-15 34 -1 -32 c0 -18 -4 -33 -10 -33 -6 0 -10 27 -10 60 0 73 21 82
42 19z"/>
<path d="M9385 1730 c3 -5 13 -10 21 -10 10 0 14 -13 14 -50 0 -27 5 -50 10
-50 6 0 10 23 10 50 0 38 4 50 15 50 8 0 15 5 15 10 0 6 -21 10 -46 10 -27 0
-43 -4 -39 -10z"/>
<path d="M9492 1678 c1 -60 1 -61 7 -18 l6 45 18 -44 c19 -47 26 -47 44 2 l11
32 1 -37 c2 -64 21 -42 21 23 0 72 -16 76 -39 8 l-14 -44 -20 48 c-11 26 -23
47 -28 47 -5 0 -8 -28 -7 -62z"/>
<path d="M3634 1207 c-109 -36 -174 -117 -174 -217 0 -114 64 -182 252 -264
149 -65 202 -130 178 -218 -28 -102 -178 -135 -345 -78 -32 11 -62 20 -66 20
-5 0 -13 -19 -19 -41 -14 -50 -13 -51 85 -76 93 -23 225 -23 290 0 66 22 123
70 146 121 26 57 25 148 -2 203 -28 59 -67 88 -189 145 -161 75 -171 81 -196
114 -18 23 -24 43 -24 81 0 59 25 98 76 119 44 18 168 18 230 -1 27 -8 52 -15
56 -15 7 0 32 80 26 85 -36 28 -258 43 -324 22z"/>
<path d="M4150 1060 l0 -79 -57 -3 -58 -3 -3 -37 -3 -38 60 0 61 0 1 -232 c0
-261 5 -290 58 -325 27 -18 48 -23 102 -23 89 0 99 5 99 46 l0 34 -58 0 c-100
0 -97 -9 -97 262 l0 233 73 3 72 3 0 39 0 40 -75 0 -75 0 0 80 0 80 -50 0 -50
0 0 -80z"/>
<path d="M4626 970 c-124 -49 -199 -200 -181 -364 15 -132 68 -216 163 -263
48 -23 70 -28 137 -28 67 0 89 5 137 28 95 47 148 131 163 263 18 165 -58 317
-182 364 -70 26 -171 26 -237 0z m221 -86 c70 -52 97 -129 91 -254 -8 -176
-102 -264 -243 -229 -102 26 -151 121 -143 278 6 117 45 190 118 220 41 17
146 8 177 -15z"/>
<path d="M5315 974 c-16 -9 -42 -30 -57 -47 l-27 -32 -1 43 0 42 -50 0 -50 0
0 -325 0 -325 55 0 55 0 0 228 c0 216 1 230 23 272 27 54 72 80 140 80 l47 0
0 40 0 40 -52 0 c-29 -1 -66 -8 -83 -16z"/>
<path d="M5625 967 c-65 -31 -111 -78 -144 -147 -23 -49 -26 -67 -26 -165 0
-130 19 -186 88 -253 82 -80 205 -108 346 -78 41 8 76 17 78 20 2 2 1 21 -3
41 -6 34 -9 36 -33 31 -160 -37 -238 -28 -307 36 -26 24 -48 56 -58 85 -30 89
-46 83 214 83 l230 0 0 63 c0 125 -48 227 -128 275 -36 21 -61 26 -126 29 -70
4 -88 1 -131 -20z m182 -68 c45 -17 82 -60 98 -113 24 -81 36 -76 -170 -76
-206 0 -196 -4 -170 71 37 103 144 155 242 118z"/>
</g>
</svg>
